<?xml version="1.0" encoding="utf-8"?>
<!-- Generator: Adobe Illustrator 26.0.2, SVG Export Plug-In . SVG Version: 6.00 Build 0)  -->
<svg version="1.1" id="Layer_1" xmlns="http://www.w3.org/2000/svg" xmlns:xlink="http://www.w3.org/1999/xlink" x="0px" y="0px"
	 viewBox="0 0 960 640" style="enable-background:new 0 0 960 640;" xml:space="preserve">
<style type="text/css">
	.st0{fill-rule:evenodd;clip-rule:evenodd;fill:#C4C5C5;}
	.st1{fill-rule:evenodd;clip-rule:evenodd;fill:#F4D209;}
	.st2{fill:none;stroke:#F4D209;stroke-width:4.4633;stroke-miterlimit:10;}
</style>
<g>
	<path class="st0" d="M295.6,133.8l-4.7,35.7l4.8,25.7l-2.4,35.4l2.4,42.7l5.7,28.9l-4.8,29l-1.6,32.1l3.2,24.9l-4.8,37l2.3,24.2
		l4.2,25.7l-2.9,21.7l17.4,6.5l60.4,4l54.7-7.2l22.6,4.8l39.4-2.5l36.2,0.9l36.3,5.6l39.4-3.3l32.2-3.9l32.2,3.9l1.5-29.7l-6.4-32.2
		l4.1-37.8l-4.8-38.6l2.4-34.6l-0.8-33.8l4.1-39.4l-6.5-43.5l6.5-35.4l-3.3-27.3l-2.4-16.9l0,0c0,0-8.4-2.3-26.6-0.9
		c-7.7,0.7-16.9,3.5-24.9,3.2c-12.7-0.4-20.1-8-31.4-8c-16.1,0-26.1,5.7-45.8,5.7c-16.8,0-12.9-2.7-30.9-2.7
		c-16.5,0-29.2,4.3-45.6,4.3c-17.4,0-38.6-4.3-54.8-4.3c-15,0-32,4.4-44.8,4.4c-12.3,0-22.7-3.5-31.6-4.2
		C306.6,132.8,295.6,133.8,295.6,133.8L295.6,133.8z"/>
	<path class="st1" d="M332.9,468.6h297.5V171.1H332.9l0,0C332.9,270.2,332.9,369.4,332.9,468.6L332.9,468.6z"/>
	<path class="st0" d="M338.8,462.6h285.6V177H338.8l0,0C338.8,272.2,338.8,367.4,338.8,462.6L338.8,462.6z"/>
	<path class="st2" d="M336.2,381.1l207.3-207.2 M335.7,297.5l123.9-123.9 M335.9,213l40-40 M338.8,462.6L624.4,177 M420.3,465.3
		L627.6,258 M503.9,465.8l123.9-123.9 M588.4,465.5l40-40 M542.9,465.3L335.6,258 M459.3,465.8L335.4,341.9 M374.8,465.5l-40-40
		 M338.8,177l285.6,285.6 M420.3,174.4l207.3,207.3 M503.9,173.9l123.9,123.9 M588.4,174.1l40,40.1"/>
</g>
</svg>
