<?xml version="1.0" encoding="utf-8"?>
<!-- Generator: Adobe Illustrator 26.0.2, SVG Export Plug-In . SVG Version: 6.00 Build 0)  -->
<svg version="1.1" id="Layer_1" xmlns="http://www.w3.org/2000/svg" xmlns:xlink="http://www.w3.org/1999/xlink" x="0px" y="0px"
	 viewBox="0 0 960 640" style="enable-background:new 0 0 960 640;" xml:space="preserve">
<style type="text/css">
	.st0{fill-rule:evenodd;clip-rule:evenodd;fill:#C4C5C5;}
	.st1{fill-rule:evenodd;clip-rule:evenodd;fill:#FFFFFF;}
</style>
<g>
	<polygon class="st0" points="393.4,534.7 388.6,532.4 389,519.1 391.1,508.4 391.1,501.6 391.8,492.3 390.7,485.8 389,478.4 
		389.7,474.9 390.1,465.7 389.4,461.8 389.4,452.8 390.1,450.8 388.6,447.2 389.4,443.7 390.1,438.8 391.1,437.2 390.1,433.5 
		388.6,429.1 388.1,423.1 388.4,419.4 387.7,417.3 388.1,405.7 388.6,403.4 388.4,399.9 389,392.8 391.3,388.4 392.4,384.4 
		392.4,379.6 390.4,369.8 390.7,365.2 389.7,361.1 389.7,351.1 390.7,347.5 391.1,339.3 390.4,326.8 389.4,321.2 390.4,313.6 
		391.3,309.8 391.3,303.4 392.4,300.2 392.4,291.8 391.1,285.3 390.4,279.2 391.1,274.3 390.4,266.8 390.4,259 391.1,256.1 
		390.4,252.4 390.4,241 391.1,236.4 390.1,232 390.4,227.6 390.7,220.8 389.7,218.9 389.4,213.9 391.8,206.7 393.8,198.7 
		392.2,190.3 392.7,188.8 391.1,183 390.4,174.6 390.7,171.3 390.4,164.9 389.7,162.1 390.4,158.3 389.7,153.8 390.1,152.2 
		391.1,147.6 389.7,146.6 390.7,139.4 390.4,129.1 391.3,121.9 390.1,113.7 388.6,107.3 389.7,104.6 394.6,105.8 401.4,106.2 
		408,105.5 417.5,104.6 422.5,104.6 427.6,104.2 437.3,104.8 448.5,105.9 453.5,105.5 467.6,105.3 473.3,105.7 486.7,105.7 
		489.8,105.3 494.9,106.2 500.3,105.7 507.6,105.3 509.9,104.6 515.3,105.3 522.1,106.2 531.2,106.6 536.6,106.3 539.9,106.9 
		546.1,107.3 555.9,106.2 564.4,104.6 570.3,104.6 571.2,107.4 569.9,113.7 568.5,121.9 569.6,129.1 569.2,139.6 570.3,146.8 
		568.8,147.6 569.9,152.2 570.3,154 569.6,158.3 570.3,162.1 569.6,164.9 569.2,171.3 569.6,174.7 568.8,183 567.3,188.8 
		567.8,190.3 566.1,198.7 568.2,206.9 570.6,214.1 570.3,219.1 569.2,220.8 569.6,227.6 569.9,232 568.8,236.4 569.6,241 
		569.6,252.6 568.8,256.1 569.6,259.1 569.6,267 568.8,274.3 569.6,279.2 568.8,285.4 567.6,291.9 567.6,300.2 568.5,303.4 
		568.5,309.8 569.6,313.6 570.6,321.4 569.6,326.8 568.8,339.3 569.2,347.7 570.3,351.1 570.3,361.1 569.2,365.2 569.6,369.9 
		567.6,379.6 567.6,384.4 568.5,388.5 570.8,392.8 571.5,400 571.2,403.6 571.9,405.7 572.3,417.3 571.5,419.4 571.9,423.1 
		571.2,429.2 569.9,433.5 568.8,437.2 569.9,438.8 570.6,443.7 571.2,447.2 569.9,450.8 570.6,452.8 570.6,461.8 569.9,465.7 
		570.3,475.1 570.8,478.4 569.2,485.9 568.2,492.3 568.8,501.6 568.8,508.4 570.7,519.1 571.2,532.4 569.3,533.9 562.3,533.7 
		552.6,535 545.3,533.3 536.6,533.4 531.2,533.1 522.1,533.7 515.3,534.5 509.9,535.2 507.6,534.5 500.3,534.1 494.9,533.7 
		489.8,534.5 486.7,534.1 473.3,534.1 467.6,534.5 453.5,534.2 448.5,533.8 437.3,534.9 429.3,535.8 422.5,535.2 417.5,535.2 
		409.5,534.9 401.4,535.3 	"/>
	<polygon class="st1" points="484.1,107.8 484.1,531.9 486.7,531.9 489.7,532.3 492.7,531.9 492.7,107.8 489.7,107.4 487,107.8 	"/>
	<polygon class="st1" points="468,107.4 468,532.3 473.1,531.9 476.5,531.9 476.5,107.8 473.1,107.8 	"/>
</g>
</svg>
