<?xml version="1.0" encoding="utf-8"?>
<!-- Generator: Adobe Illustrator 26.0.2, SVG Export Plug-In . SVG Version: 6.00 Build 0)  -->
<svg version="1.1" id="Layer_1" xmlns="http://www.w3.org/2000/svg" xmlns:xlink="http://www.w3.org/1999/xlink" x="0px" y="0px"
	 viewBox="0 0 960 640" style="enable-background:new 0 0 960 640;" xml:space="preserve">
<style type="text/css">
	.st0{fill-rule:evenodd;clip-rule:evenodd;fill:#C4C5C5;}
	.st1{fill-rule:evenodd;clip-rule:evenodd;fill:#FFFFFF;stroke:#000000;stroke-width:4.1173;stroke-miterlimit:10;}
	.st2{fill-rule:evenodd;clip-rule:evenodd;fill:#F4D209;}
</style>
<g>
	<polygon class="st0" points="186.6,272.6 188,293.2 183.9,314.6 183.7,341.6 188.4,392.5 181.8,447.2 189.1,475 221.8,466.6 
		343.4,467.5 386.5,469.1 484.3,465 568,462.5 610.4,463.8 655,463.8 722,469.1 753.5,470.5 761.7,444.9 754.8,415.9 761.7,379.1 
		761.7,337.3 773.8,306.9 771.8,292 774,272.6 	"/>
	<polygon class="st1" points="770.8,271.2 775.4,251.3 771.3,235.6 776.1,213.4 774.3,194.7 766.5,175 767,169.1 754.4,167 
		722.2,167.9 653,172.5 607.5,172.5 562.7,173.7 475.9,171.6 374.7,167.9 323.2,173.4 204,170 195.5,169.1 193.9,174.3 185.5,190.6 
		184.3,213.4 193,237.6 187.8,252 188.4,271.2 	"/>
	<polygon class="st2" points="309.8,377.5 758.1,377.5 758.1,356.9 309.8,356.9 	"/>
	<polygon class="st2" points="307.3,336.3 758.1,336.3 766,316 307.3,316 	"/>
	<polygon class="st2" points="302.7,285.4 323,285.4 323,377.5 302.7,377.5 	"/>
</g>
</svg>
