<?xml version="1.0" encoding="utf-8"?>
<!-- Generator: Adobe Illustrator 26.0.2, SVG Export Plug-In . SVG Version: 6.00 Build 0)  -->
<svg version="1.1" id="Layer_1" xmlns="http://www.w3.org/2000/svg" xmlns:xlink="http://www.w3.org/1999/xlink" x="0px" y="0px"
	 viewBox="0 0 960 640" style="enable-background:new 0 0 960 640;" xml:space="preserve">
<style type="text/css">
	.st0{fill-rule:evenodd;clip-rule:evenodd;fill:#C4C5C5;}
	.st1{fill-rule:evenodd;clip-rule:evenodd;fill:#FFFFFF;}
	.st2{fill-rule:evenodd;clip-rule:evenodd;fill:#9B9B9B;stroke:#000000;stroke-width:1.1567;stroke-miterlimit:10;}
	.st3{fill-rule:evenodd;clip-rule:evenodd;fill:#FFFFFF;stroke:#FFFFFF;stroke-width:1.1567;stroke-miterlimit:10;}
</style>
<g>
	<polygon class="st0" points="514.3,543.5 512.5,543.6 505.1,543.7 502,543.1 496.8,542.3 490.8,543.1 486.5,541.7 481.2,542.3 
		475.8,541.5 470.8,539.4 459.6,542 448.1,539.4 438,542 433,541.8 427.2,542.3 418.6,541.7 413.7,543 413.1,538.3 414.8,529.7 
		414.3,523.8 413.7,515.4 414.5,514.4 413.9,509.1 413.7,507 414.2,501.9 413.7,497.7 414.2,494.1 414.3,487 414.2,482.9 
		414.5,473.2 415.3,466.5 415,464.8 415.9,455.2 414.8,445.5 413.6,437.2 413.7,431.5 414.3,429.5 414.2,421.4 413.9,416.3 
		414.5,411.2 414.2,405.8 414.2,392.6 414.5,388.3 414.2,385.1 414.2,376 414.5,367.2 414.2,361.5 414.5,354.5 415.2,346.8 
		415.2,337.1 414.6,333.3 414.6,326 414.2,321.4 413.6,312.7 414.2,306.4 414.5,291.8 414.3,282.2 413.7,278.1 413.7,266.4 
		414.3,261.7 414.2,256.2 415.2,244.9 415.2,239.3 414.6,234.6 413.4,229.4 413.1,221.4 413.2,217.1 412.9,214.4 412.7,201.3 
		413.1,198.6 412.9,194.3 413.2,187.3 413.9,182.2 414.5,177.9 413.9,176.1 413.6,170.3 413.2,166.4 413.9,162.3 413.6,159.9 
		413.6,149.4 413.9,145.1 413.7,134.1 413.4,130.3 414.3,121.5 414.8,114 414.5,110.1 414.5,106.1 413.4,100.1 413.2,97.3 
		413.7,96.3 418.6,97.5 424.5,97.8 433.1,96.7 437.7,98.2 449,97.1 457.8,96.9 472.3,95.2 476.5,96 481.1,95.6 485.1,97.3 
		490.6,97.3 493.3,96.1 494.9,96.6 502,96.6 505.1,96.1 512.5,96.6 514.3,97 	"/>
	<polygon class="st1" points="474,159.7 512.6,198.3 512.6,192.8 473.3,153.6 	"/>
	<polygon class="st1" points="479.8,206.3 512.6,239.1 512.6,233.6 479,200.1 	"/>
	<polygon class="st1" points="486,255.5 512.6,282.2 512.6,276.7 485.2,249.3 	"/>
	<polygon class="st1" points="491.9,302.4 512.6,323.2 512.6,317.7 491.1,296.2 	"/>
	<polygon class="st1" points="497.4,347.2 512.6,362.4 512.6,356.9 496.6,340.9 	"/>
	<polygon class="st1" points="503.7,397.3 512.6,406.2 512.6,400.7 502.9,391 	"/>
	<polygon class="st1" points="509.6,445.2 512.6,448.1 512.6,442.6 508.9,438.8 	"/>
	<polygon class="st2" points="514.3,542.9 514.3,97.2 515.4,97.1 523,96 529.7,95.2 533.1,95.8 536.7,95.8 542,97.1 544.4,97.5 
		545.4,96.8 546.1,97.7 545.9,100.3 544.4,106.1 544.4,110 543.9,113.7 544.7,120.9 545.9,129.2 545.4,132.8 545,143.3 545.6,147.5 
		545.6,157.5 545,159.8 546.1,163.6 545.6,167.5 545,172.9 544.4,174.6 545,178.7 546.1,183.7 546.5,190.4 546.2,194.4 546.7,197 
		546.5,209.5 546.1,212 546.2,216.1 545.9,223.8 544.2,228.8 543.4,233.3 543.4,238.6 544.9,249.3 544.7,254.6 545.4,259.1 
		545.4,270.3 544.7,274.1 544.4,283.3 544.9,297.2 545.6,303.2 544.9,311.6 544.2,316 544.2,322.9 543.4,326.5 543.4,335.8 
		544.4,343.1 544.9,349.7 544.4,355.3 544.9,363.6 544.9,372.3 544.4,375.5 544.9,379.6 544.9,392.1 544.4,397.2 545,402.1 
		544.9,407 544.7,414.7 545.4,416.7 545.6,422.1 543.9,430 542.5,439.2 543.7,448.3 543.3,450.1 544.4,456.5 544.9,465.7 
		544.7,469.5 544.9,476.4 545.4,479.7 544.9,483.7 545.4,488.6 545,490.7 544.4,495.7 545.4,496.7 544.7,504.6 544.9,516.1 
		544.2,524 545,533.3 546.1,540.4 544.4,542.5 542,542.9 536.7,544.2 533.1,544.2 529.7,544.8 523,544 515.4,542.9 	"/>
	<polygon class="st1" points="468.2,112.8 512.6,156.8 512.6,151.4 467.3,106.4 	"/>
	<polygon class="st3" points="511.3,477.6 511.3,541.8 509.6,541.9 509.6,478.1 462.1,98.2 463.9,98.1 	"/>
	<polygon class="st1" points="494.8,97.8 512.4,115.3 512.4,109.8 500.2,97.8 	"/>
</g>
</svg>
