<?xml version="1.0" encoding="utf-8"?>
<!-- Generator: Adobe Illustrator 26.0.2, SVG Export Plug-In . SVG Version: 6.00 Build 0)  -->
<svg version="1.1" id="Layer_1" xmlns="http://www.w3.org/2000/svg" xmlns:xlink="http://www.w3.org/1999/xlink" x="0px" y="0px"
	 viewBox="0 0 960 640" style="enable-background:new 0 0 960 640;" xml:space="preserve">
<style type="text/css">
	.st0{fill-rule:evenodd;clip-rule:evenodd;fill:#F4D209;stroke:#000000;stroke-width:3.6663;stroke-miterlimit:10;}
	.st1{fill-rule:evenodd;clip-rule:evenodd;fill:#BD002D;}
	.st2{fill-rule:evenodd;clip-rule:evenodd;fill:#006FB6;}
</style>
<g>
	<path class="st0" d="M384.7,155.9c1.9-2.3,4.4-3.5,8.4-3.3c3.7-0.2,9.3,3.5,13.7,3.3c4.7-0.7,8.4-5.1,14.4-6.5
		c6.1-1.9,15.6-3.7,21.9-3.3c6.1,0.7,6.5,3.5,15.4,6.5c8.8,2.6,27-6.1,35.9-5.1c8.4,0.9,7.5-5.6,13.3-4c6.1,1.4,15.1,10.7,22.6,12.8
		c7,2.1,13.5,1.4,20.3,0c6.8-0.7,35.9-15.6,42.8-18.9c6.8-3.3,18.4,2.8,24.2,0.9c5.6-2.1,8.4,0.2,11.9,2.6c3.3,2.1,6.1,4.4,7.5,10.5
		c1.4,6.1-0.5,14.4,0.5,25.2c0.9,10.5,2.6,27.7,4.9,37.5c2.1,9.6,6.5,14.4,8.1,21.2c1.4,6.3,0,9.5,0,17.7
		c-0.5,7.7-1.2,17.7-1.9,29.1c0.2,9.5,1.4,18.2,2.8,26.1c1.2,7.7,4.2,11.9,5.1,21c1.2,9.1,2.3,24.7,3,33.5
		c1.2,8.6-14.7,25.4-13.3,33.3c0.9,7.9,1.2,20.9,3.3,28.4c1.9,7.2,7.2,10.9,8.6,15.6c1.4,4.4,4,24.9,3.3,28.6
		c-0.9,3.7-1.4,7.2-4.2,10.7c-3,3.3-7,7.7-13.5,9.5c-6.5,1.4-16.3-0.5-24.7-0.7l0,0c-8.6-0.7-20.7-2.3-25.8-1.9
		c-4.9,0.7-0.2,4.7-2.8,4.9c-2.6,0.2-4-5.1-12.3-4c-8.6,1.2-26.8,9.8-38.2,10.5c-11.2,0-18.6-7.7-29.8-8.1
		c-11.9,0-30.3,4.9-38.2,7.4c-7.9,2.6-4.2,6.8-9.1,6.5c-5.1-0.5-12.1-9.3-21-9.8c-9.3-0.5-22.8,4.4-32.8,6.5
		c-10.2,1.9-28.9-14.7-39.1-14.2c-10.5,0-26.1-1.9-34.2-2.3c-8.4-0.7-10.5-1.9-14.7,0c-4.7,1.9-8.8,9.8-12.1,11.2
		c-3.3,1.2-5.8-0.5-7.2-4c-1.4-3.5-2.3-8.1-1.4-16.3c0.9-8.2,5.4-20.3,6.8-31.7c1.2-11.4,0.2-21.9,0-35.6c-0.5-14-1.6-34.5-2.3-47
		c-1.2-12.8-4.7-18.2-3-27.7c1.9-9.5,3.5-17.9,6.8-29.8c3-12.3-7.7-29.1-7.2-44c0.7-14.9-1.9-33.5-1.9-47
		c-0.2-13.5-1.9-23.7,0.9-33.3c3-9.5,11.9-17.9,16.8-23.5c4.7-5.6,6.3-9.5,11.9-9.5c5.6-0.5,12.6,2.3,21.4,7.9
		C361.7,154,373.1,154.9,384.7,155.9L384.7,155.9z"/>
	<path class="st1" d="M478.3,183.9c75.8,0,137.4,61.5,137.4,137.4c0,75.8-61.5,137.4-137.4,137.4s-137.4-61.5-137.4-137.4
		C340.9,245.4,402.5,183.9,478.3,183.9"/>
	<path class="st2" d="M478.3,212.1c60.7,0,109.9,49.2,109.9,109.9S539,431.9,478.3,431.9S368.4,382.7,368.4,322
		S417.6,212.1,478.3,212.1"/>
	<polygon class="st1" points="401.7,223.6 380.3,245.1 555.4,419.9 576.8,398.5 	"/>
</g>
</svg>
