<?xml version="1.0" encoding="utf-8"?>
<!-- Generator: Adobe Illustrator 26.0.2, SVG Export Plug-In . SVG Version: 6.00 Build 0)  -->
<svg version="1.1" id="Layer_1" xmlns="http://www.w3.org/2000/svg" xmlns:xlink="http://www.w3.org/1999/xlink" x="0px" y="0px"
	 viewBox="0 0 960 640" style="enable-background:new 0 0 960 640;" xml:space="preserve">
<style type="text/css">
	.st0{fill-rule:evenodd;clip-rule:evenodd;}
	.st1{fill-rule:evenodd;clip-rule:evenodd;fill:#F4D209;}
	.st2{fill-rule:evenodd;clip-rule:evenodd;fill:#BD002D;}
	.st3{fill-rule:evenodd;clip-rule:evenodd;fill:#006FB6;}
	.st4{fill-rule:evenodd;clip-rule:evenodd;fill:#C4C5C5;}
	.st5{fill-rule:evenodd;clip-rule:evenodd;fill:#FFFFFF;stroke:#000000;stroke-width:3.1687;stroke-miterlimit:10;}
</style>
<g>
	<path class="st0" d="M359,118.3c-8.6,0-15.5,6.9-15.5,15.5c0,69.3,0,32,0,101.3c0,8.6,6.9,15.7,15.5,15.7c107.4,0,125,0,232.5,0
		c8.6,0,15.5-7,15.5-15.7c0-69.3,0-32,0-101.3c0-8.6-6.9-15.5-15.5-15.5C484,118.3,466.5,118.3,359,118.3L359,118.3z"/>
	<path class="st1" d="M359,126.1c-4.2,0-7.7,3.5-7.7,7.7c0,69.3,0,32,0,101.3c0,4.4,3.5,7.9,7.7,7.9c107.4,0,125,0,232.5,0
		c4.2,0,7.7-3.5,7.7-7.9c0-69.3,0-32,0-101.3c0-4.2-3.5-7.7-7.7-7.7C484,126.1,466.5,126.1,359,126.1L359,126.1z"/>
	<path class="st2" d="M460.7,174.6c8.1,8.1,21.1,8.1,29.4,0c8.1-8.3,8.1-21.3,0-29.4c-8.3-8.3-21.3-8.3-29.4,0
		C452.4,153.3,452.4,166.3,460.7,174.6L460.7,174.6z"/>
	<path class="st3" d="M463.5,171.6c6.5,6.5,17.1,6.5,23.6,0c6.5-6.5,6.5-17.1,0-23.6c-6.5-6.5-17.1-6.5-23.6,0
		C457,154.5,457,165.1,463.5,171.6L463.5,171.6z"/>
	<polygon class="st2" points="486.8,174.6 490.2,171.2 463.6,145 460.3,148.4 	"/>
	<path class="st0" d="M414.8,215.2v4l0,0c0,1.6-3,1.6-3.5,1.6c-0.5,0-3.7-0.2-3.7-2.6C407.5,215.4,411.4,215.4,414.8,215.2
		L414.8,215.2z M420.2,219.1v-10.7l0,0c0-2.8-2.6-5.1-8.4-5.1c-4.4,0-7.6,2.1-8.6,2.8l0,0l2.3,4l0,0c1.8-1.2,5.6-2.1,7-2.1
		c1.6,0,2.3,1.2,2.3,1.9l0,0v1.2l0,0c-1.8,0-6.3,0.7-8.3,1.4c-1.6,0.5-4.4,1.8-4.4,5.8c0,4.2,4.2,7,8.4,7c3.7,0,4.9-2.3,4.9-2.3
		s1.8,2.3,4.9,2.3l0,0l2.3-4.2l0,0C420,220.7,420.2,219.8,420.2,219.1L420.2,219.1z"/>
	<path class="st0" d="M456.4,210.6v14.2H451V212l0,0c0-2.1-1.6-3.5-3.2-3.5c-1.8,0-3.7,1.6-3.7,4.2l0,0v12.1h-5.3v-13l0,0
		c0-1.9-1.6-3.3-3.2-3.3c-1.4,0-3.7,1.2-3.7,4l0,0v12.3h-5.5v-20.9h5.4v1.2l0,0c0,0,1.9-1.6,5.4-1.6c3.2,0,5.1,2.1,4.9,2.1
		c0,0,2.3-2.3,5.8-2.3C453.4,203.4,456.4,207.1,456.4,210.6L456.4,210.6z"/>
	<path class="st0" d="M533.1,212v3.9l0,0c0,2.1,1.4,4.2,4.6,4.2c3.2,0,4.9-3,4.9-6.2c0-3.3-1.8-6.2-4.9-6.2
		C534.5,207.8,533.1,210.1,533.1,212L533.1,212z M533.1,204.8v-0.9h-5.4v26.7h5.4v-7.6v0c0,0,1.8,2.1,5.6,2.1
		c7.4,0,9.5-7.7,9.5-11.1c0-2.6-1.1-5.6-2.6-7.6c-1.6-1.8-3.7-3.3-7-3.5C536.6,203.1,534.5,203.8,533.1,204.8L533.1,204.8z"/>
	<polygon class="st0" points="470.1,210.1 479.3,210.1 479.3,214.5 470.1,214.5 	"/>
	<path class="st0" d="M508.8,214.9c0-2.6-2.1-4.9-4.7-4.9c-2.6,0-4.6,2.3-4.6,5.1c0,2.6,1.9,4.9,4.6,4.9
		C505.8,219.9,508.8,218.5,508.8,214.9L508.8,214.9z M508.5,203.2c1.8-0.7,3.5-1.4,5.3-2.1c-1.1-3-3-6-9.7-6
		c-6.5,0-11.3,4.7-11.3,15.1c0,5.3,2.1,9.1,3.5,11.3c1.4,2.1,4.9,3.7,8.1,3.7c3.3,0,10.2-1.9,10.2-10.4c0-8.4-6.5-10.2-9.5-10.2
		c-2.8,0-5.3,1.4-6.2,2.3c0-4.6,3-6.5,5.1-6.5C506.2,200.4,507.4,201.3,508.5,203.2L508.5,203.2z"/>
	<path class="st0" d="M379.1,207.5c-2.3,0-4.6-1.1-4.6-3.5c0-2.5,2.3-3.7,4.4-3.7l0,0c2.1,0,4.6,1.2,4.6,3.7c0,2.5-2.3,3.5-4.6,3.5
		H379.1z M379.1,219.9c-3.2,0-5.4-1.2-5.4-3.9c0-2.5,2.6-3.7,5.3-3.7l0,0c2.8,0,5.3,1.2,5.3,3.7c0,2.6-2.1,3.9-5.3,3.9H379.1z
		 M378.9,195.2c4.9,0,10.7,2.3,10.7,8.8c0,4.8-3.5,5.6-3.5,5.6s4.2,1.1,4.2,6.7c0,5.8-4.6,9.1-11.4,9.1l0,0
		c-6.9,0-11.4-3.3-11.4-9.1c0-5.6,4.2-6.7,4.2-6.7s-3.3-0.9-3.3-5.6C368.3,197.4,374.1,195.2,378.9,195.2L378.9,195.2z"/>
	<path class="st0" d="M582.9,210.6v14.2h-5.4V212l0,0c0-2.1-1.6-3.5-3.2-3.5c-1.8,0-3.7,1.6-3.7,4.2l0,0v12.1h-5.3v-13l0,0
		c0-1.9-1.6-3.3-3.2-3.3c-1.4,0-3.7,1.2-3.7,4l0,0v12.3H553v-20.9h5.4v1.2l0,0c0,0,1.9-1.6,5.4-1.6c3.2,0,4.9,2.1,4.9,2.1
		s2.3-2.3,5.8-2.3C579.9,203.4,582.9,207.1,582.9,210.6L582.9,210.6z"/>
	<polygon class="st4" points="254.2,365.9 255.3,381.7 252.1,398.1 251.9,419 255.6,458.2 250.5,500.1 256.1,521.7 281.3,515.2 
		374.8,515.9 408.1,517.1 483.3,513.9 547.7,512 580.4,513.1 614.7,513.1 666.2,517.1 690.5,518.2 696.8,498.5 691.5,476.1 
		696.8,447.8 696.8,415.7 706.1,392.3 704.5,380.8 706.3,365.9 	"/>
	<polygon class="st5" points="703.8,364.8 707.4,349.5 704.2,337.4 707.9,320.4 706.5,305.9 700.5,290.8 700.8,286.2 691.2,284.7 
		666.4,285.4 613.1,288.7 578.1,288.7 543.6,289.8 476.8,288 398.9,285.4 359.4,289.4 267.6,286.9 261.1,286.2 259.8,290.3 
		253.3,302.8 252.5,320.4 259.1,339 255.1,350.1 255.6,364.8 	"/>
	<polygon class="st1" points="347.1,415 694,415 700.1,399.3 347.1,399.3 	"/>
	<polygon class="st1" points="343.5,375.6 359.2,375.6 359.2,438.7 343.5,438.7 	"/>
</g>
</svg>
