<?xml version="1.0" encoding="utf-8"?>
<!-- Generator: Adobe Illustrator 26.0.2, SVG Export Plug-In . SVG Version: 6.00 Build 0)  -->
<svg version="1.1" id="Layer_1" xmlns="http://www.w3.org/2000/svg" xmlns:xlink="http://www.w3.org/1999/xlink" x="0px" y="0px"
	 viewBox="0 0 960 640" style="enable-background:new 0 0 960 640;" xml:space="preserve">
<style type="text/css">
	.st0{fill-rule:evenodd;clip-rule:evenodd;fill:#C4C5C5;}
	.st1{fill-rule:evenodd;clip-rule:evenodd;fill:#FFFFFF;}
</style>
<g>
	<polygon class="st0" points="549.7,389.9 550.7,395.5 550.4,403.4 551.4,409 550,409.7 551,413.2 551.4,414.6 550.7,418 
		551.4,420.9 550.7,423.1 550.4,428 550.7,430.5 550,437 548.4,441.5 549,442.8 547.3,449.1 549.4,455.4 551.7,461 551.4,464.8 
		550.4,466.3 550.7,471.5 551,474.9 550,478.3 550.7,481.9 550.7,490.7 550,493.5 550.7,495.8 550.7,501.8 550,507.5 550.7,511.3 
		550,516.2 548.7,521.1 548.7,527.5 549.7,530.1 548.8,532.5 543.5,533.1 538.1,532 532.5,533.1 527.1,532.7 518.4,531.4 
		511.5,533.8 506.1,534.3 502.1,534.8 496.4,533.4 491.2,533.1 486.1,533.8 480,532.7 469.7,533.4 464.1,533.8 450.1,533.4 
		445.1,533.2 434,534 426.3,534.7 419.9,533.3 413.2,534.5 406.6,533.2 406.6,107.2 414.6,105.6 419.6,105.6 424.6,105.2 
		434.3,105.7 445.3,106.6 450.3,106.3 464.3,106 471.9,107.6 483.3,106.4 486.3,106 491.4,106.7 499.3,107.6 504,106 506.4,105.6 
		511.8,106 518.4,106.7 527.4,107.1 532.7,108.4 536.1,107.3 542.4,107.2 551.4,106.3 552.4,108.4 550.5,117 551.4,123 551,127.2 
		551.4,128.6 550.7,132.1 551.4,134.9 550.7,137.2 550.4,142.1 550.7,144.6 550,151 548.4,155.5 549,156.8 547.3,163.2 549.4,169.4 
		551.7,175 551.4,178.9 550.4,180.3 550.7,185.6 551,189 550,192.4 550.7,195.9 550.7,204.8 550,207.6 550.7,209.8 550.7,216 
		550,221.5 550.7,225.4 550,230.2 548.7,235.2 548.7,241.6 549.7,244.1 549.7,249.1 550.7,251.9 551.7,257.9 550.7,262.1 550,271.8 
		550.4,278.2 551.4,280.9 551.4,288.7 550.4,291.8 550.7,295.4 548.7,302.9 548.7,306.7 549.7,309.8 552,313.2 552.7,318.7 
		552.4,321.4 553,323.2 553.4,332 552.7,333.8 553,336.5 552.4,341.3 551,344.7 550,347.4 551,348.7 551.7,352.5 552.4,355.2 
		551,357.9 551.7,359.5 551.7,366.5 551,369.4 551.4,376.6 552,379.2 550.4,385 	"/>
	<polygon class="st1" points="460,107.8 459.9,532 444.9,531.5 441.1,531.8 441.1,108 445.9,108.3 	"/>
</g>
</svg>
